<svg width="420" height="420" viewBox="0 0 420 420" fill="none" xmlns="http://www.w3.org/2000/svg">
<path d="M231.694 0C245.189 2.91137 257.693 8.48389 268.63 16.1416L266.124 39.2021L275.175 48.2521L296.864 45.8942C302.975 55.6802 307.476 66.5743 310 78.2054L290.843 93.6067V106.405L310 121.806C307.537 133.155 303.19 143.801 297.303 153.402L275.175 150.998L266.124 160.048L268.707 183.815C257.779 191.482 245.284 197.066 231.796 199.99L216.44 180.889H203.64L188.275 200C175.573 197.252 163.75 192.145 153.286 185.161L155.994 160.257L155.998 160.254L146.947 151.203L146.941 151.209V151.205L122.972 153.81C116.938 144.07 112.493 133.241 110 121.687L129.008 106.408H129.013V93.6087H129.005L129.008 93.6057L110 78.3253C112.522 66.6394 117.037 55.6952 123.177 45.8692L145.111 48.2541L145.114 48.258L154.166 39.2071L154.16 39.2021H154.164L151.638 15.9708C162.517 8.40044 174.936 2.88991 188.331 0L203.613 19.0071H216.413L231.694 0Z" fill="#FDC00F"/>
<ellipse cx="210.27" cy="100.262" rx="61.3897" ry="61.3854" fill="white"/>
<path d="M176.506 133.386C176.506 115.359 191.119 100.745 209.146 100.745V100.745C227.173 100.745 241.787 115.359 241.787 133.386V161.695H176.506V133.386Z" fill="#FDC00F"/>
<path d="M205.165 100.771H213.657V132.971C213.657 135.316 211.756 137.217 209.411 137.217V137.217C207.066 137.217 205.165 135.316 205.165 132.971V100.771Z" fill="#1E1E1E"/>
<ellipse cx="209.416" cy="82.8706" rx="24.5559" ry="24.5541" fill="#FFCEB5"/>
<path d="M121.694 220C135.189 222.911 147.693 228.484 158.63 236.142L156.124 259.202L165.175 268.252L186.864 265.894C192.975 275.68 197.476 286.574 200 298.205L180.843 313.607V326.405L200 341.806C197.537 353.155 193.19 363.801 187.303 373.402L165.175 370.998L156.124 380.048L158.707 403.815C147.779 411.482 135.284 417.066 121.796 419.99L106.44 400.889H93.6402L78.2748 420C65.5726 417.252 53.7495 412.145 43.2855 405.161L45.9943 380.257L45.9983 380.254L36.9467 371.203L36.9407 371.209V371.205L12.9724 373.81C6.93772 364.07 2.49331 353.241 0 341.687L19.0084 326.408H19.0134V313.609H19.0054L19.0084 313.606L0 298.325C2.52165 286.639 7.03746 275.695 13.1772 265.869L35.1112 268.254L35.1142 268.258L44.1658 259.207L44.1598 259.202H44.1638L41.6379 235.971C52.517 228.4 64.9364 222.89 78.3308 220L93.6132 239.007H106.413L121.694 220Z" fill="#FB4231"/>
<ellipse cx="100.27" cy="320.262" rx="61.3897" ry="61.3854" fill="white"/>
<path d="M100.27 280.362V324.355" stroke="#1E1E1E" stroke-width="9" stroke-linecap="round"/>
<path d="M100.27 324.355H127.895" stroke="#1E1E1E" stroke-width="9" stroke-linecap="round"/>
<path d="M341.694 220C355.189 222.911 367.693 228.484 378.63 236.142L376.124 259.202L385.175 268.252L406.864 265.894C412.975 275.68 417.476 286.574 420 298.205L400.843 313.607V326.405L420 341.806C417.537 353.155 413.19 363.801 407.303 373.402L385.175 370.998L376.124 380.048L378.707 403.815C367.779 411.482 355.284 417.066 341.796 419.99L326.44 400.889H313.64L298.275 420C285.573 417.252 273.75 412.145 263.286 405.161L265.994 380.257L265.998 380.254L256.947 371.203L256.941 371.209V371.205L232.972 373.81C226.938 364.07 222.493 353.241 220 341.687L239.008 326.408H239.013V313.609H239.005L239.008 313.606L220 298.325C222.522 286.639 227.037 275.695 233.177 265.869L255.111 268.254L255.114 268.258L264.166 259.207L264.16 259.202H264.164L261.638 235.971C272.517 228.4 284.936 222.89 298.331 220L313.613 239.007H326.413L341.694 220Z" fill="#5CC3DD"/>
<ellipse cx="320.27" cy="320.262" rx="61.3897" ry="61.3854" fill="white"/>
<path d="M324.449 284.293V295.973H318.434V284.293H324.449ZM323.707 348.083V358.551H317.731V348.083H323.707ZM329.606 335.465C329.606 333.955 329.293 332.64 328.668 331.52C328.069 330.374 327.08 329.346 325.699 328.434C324.319 327.497 322.47 326.624 320.153 325.817C316.819 324.645 313.903 323.33 311.403 321.872C308.929 320.387 307.002 318.564 305.621 316.403C304.267 314.215 303.59 311.494 303.59 308.239C303.59 305.036 304.319 302.262 305.778 299.918C307.262 297.575 309.319 295.765 311.949 294.489C314.58 293.213 317.653 292.575 321.168 292.575C323.877 292.575 326.311 292.978 328.473 293.786C330.66 294.593 332.522 295.778 334.059 297.34C335.595 298.903 336.767 300.83 337.574 303.122C338.408 305.387 338.824 307.991 338.824 310.934H329.449C329.449 309.267 329.254 307.783 328.864 306.481C328.499 305.153 327.952 304.033 327.223 303.122C326.494 302.184 325.608 301.468 324.567 300.973C323.551 300.478 322.392 300.231 321.09 300.231C319.241 300.231 317.718 300.583 316.52 301.286C315.322 301.963 314.436 302.9 313.864 304.098C313.317 305.296 313.043 306.663 313.043 308.2C313.043 309.684 313.33 310.986 313.903 312.106C314.476 313.226 315.452 314.241 316.832 315.153C318.239 316.038 320.166 316.937 322.614 317.848C325.973 319.046 328.877 320.387 331.324 321.872C333.798 323.33 335.699 325.14 337.028 327.301C338.382 329.437 339.059 332.132 339.059 335.387C339.059 338.747 338.278 341.598 336.715 343.942C335.179 346.286 333.017 348.069 330.231 349.293C327.47 350.491 324.254 351.09 320.582 351.09C318.265 351.09 315.96 350.791 313.668 350.192C311.403 349.567 309.345 348.551 307.496 347.145C305.647 345.739 304.176 343.877 303.082 341.559C301.989 339.215 301.442 336.351 301.442 332.965H310.895C310.895 334.997 311.168 336.689 311.715 338.043C312.262 339.398 313.004 340.465 313.942 341.247C314.879 342.028 315.921 342.588 317.067 342.926C318.239 343.265 319.41 343.434 320.582 343.434C322.535 343.434 324.176 343.109 325.504 342.458C326.858 341.78 327.874 340.843 328.551 339.645C329.254 338.421 329.606 337.028 329.606 335.465Z" fill="#1E1E1E"/>
<line x1="180" y1="395" x2="240" y2="395" stroke="black" stroke-width="8" stroke-dasharray="16 16"/>
<line x1="320" y1="160" x2="320" y2="220" stroke="black" stroke-width="8" stroke-dasharray="16 16"/>
<line x1="100" y1="160" x2="100" y2="220" stroke="black" stroke-width="8" stroke-dasharray="16 16"/>
</svg>
