<svg width="440" height="464" viewBox="0 0 440 464" fill="none" xmlns="http://www.w3.org/2000/svg">
<path d="M330 317H259.23C237.564 317 220 299.436 220 277.77V257C220 196.249 269.249 147 330 147V317Z" fill="#5CC3DD"/>
<path d="M330 317H400.77C422.436 317 440 299.436 440 277.77V257C440 196.249 390.751 147 330 147V317Z" fill="#2D7083"/>
<path d="M330.221 147C349.753 147 367.907 151.803 383 160.037L329.873 211L277 160.279C292.18 151.898 310.498 147 330.221 147Z" fill="white"/>
<path d="M331 168C284.608 168 247 130.392 247 84C247 37.6081 284.608 0 331 0V168Z" fill="#FFCEB5"/>
<path d="M331 0C377.392 0 415 37.6081 415 84C415 130.392 377.392 168 331 168V0Z" fill="#FFBA96"/>
<path d="M110 317H39.2305C17.5642 317 0.000162518 299.436 0 277.77V257C0 196.249 49.2487 147 110 147V317Z" fill="#E46A00"/>
<path d="M110 317H180.77C202.436 317 220 299.436 220 277.77V257C220 196.249 170.751 147 110 147V317Z" fill="#984700"/>
<path d="M110.221 147C129.753 147 147.907 151.803 163 160.037L109.873 211L57 160.279C72.1802 151.898 90.498 147 110.221 147Z" fill="white"/>
<path d="M111 168C64.6081 168 27 130.392 27 84C27 37.6081 64.6081 0 111 0V168Z" fill="#FFCEB5"/>
<path d="M111 0C157.392 0 195 37.6081 195 84C195 130.392 157.392 168 111 168V0Z" fill="#FFBA96"/>
<path d="M220 464H149.23C127.564 464 110 446.436 110 424.77V404C110 343.249 159.249 294 220 294V464Z" fill="#3D5959"/>
<path d="M220 464H290.77C312.436 464 330 446.436 330 424.77V404C330 343.249 280.751 294 220 294V464Z" fill="#293939"/>
<path d="M220.221 294C239.753 294 257.907 298.803 273 307.037L219.873 358L167 307.279C182.18 298.898 200.498 294 220.221 294Z" fill="white"/>
<path d="M221 315C174.608 315 137 277.392 137 231C137 184.608 174.608 147 221 147V315Z" fill="#FFCEB5"/>
<path d="M221 147C267.392 147 305 184.608 305 231C305 277.392 267.392 315 221 315V147Z" fill="#FFBA96"/>
</svg>
