<svg width="38" height="39" viewBox="0 0 38 39" fill="none" xmlns="http://www.w3.org/2000/svg">
<path fill-rule="evenodd" clip-rule="evenodd" d="M27.3547 1.00006C33.4854 0.977217 38.8465 8.05506 36.3814 16.2915L36.3774 16.3041L36.3732 16.3165C33.5686 24.3695 25.9331 31.1972 19.2797 36.7618L18.995 37L18.7098 36.7618C12.0568 31.1972 4.42098 24.3695 1.61626 16.3165L1.61207 16.3041L1.60829 16.2915C-0.857257 8.05506 4.50385 0.977217 10.6345 1.00006C13.5765 1.011 16.5939 2.73309 18.9946 6.52892C21.395 2.73309 24.4125 1.011 27.3544 1.00006H27.3547ZM27.3585 2.08408C24.5925 2.09436 21.7226 3.7533 19.3966 7.78048L18.9956 8.4747L18.5944 7.78048C16.2684 3.7533 13.3984 2.09436 10.6325 2.08408C5.15564 2.06364 0.244092 8.32656 2.51344 15.9322C5.13227 23.4362 12.4388 30.1482 18.9956 35.6481C25.5522 30.1482 32.8587 23.4362 35.4775 15.9322C37.7469 8.32656 32.8357 2.06364 27.3585 2.08408Z" stroke="#1F2937" stroke-width="2"/>
</svg>
