<svg width="51" height="45" viewBox="0 0 51 45" fill="none" xmlns="http://www.w3.org/2000/svg">
<path fill-rule="evenodd" clip-rule="evenodd" d="M17.9211 5.73045C19.299 4.62574 19.5282 2.6037 18.4325 1.21413C17.337 -0.175433 15.3319 -0.406379 13.9538 0.698369C2.34188 10.0075 0 22.1092 0 35.3572C0 40.6829 4.28128 45 9.56247 45C14.8437 45 19.1249 40.6829 19.1249 35.3572C19.1249 30.0317 14.8437 25.7143 9.56247 25.7143C8.64552 25.7143 7.75873 25.8445 6.91928 26.0875C8.02036 17.9589 11.0204 11.2626 17.9211 5.73045ZM50.9998 35.3572C50.9998 40.6829 46.7187 45 41.4374 45C36.156 45 31.8749 40.6829 31.8749 35.3572C31.8749 22.1092 34.2167 10.0075 45.8288 0.698369C47.2067 -0.406379 49.212 -0.175433 50.3075 1.21413C51.4031 2.6037 51.1739 4.62574 49.7959 5.73045C42.8953 11.2626 39.8953 17.9589 38.7943 26.0875C39.6336 25.8445 40.5203 25.7143 41.4374 25.7143C46.7187 25.7143 50.9998 30.0317 50.9998 35.3572Z" fill="#FD8750"/>
</svg>
