<svg width="472" height="472" viewBox="0 0 472 472" fill="none" xmlns="http://www.w3.org/2000/svg">
<path d="M277 367C277 394.614 254.614 417 227 417H153C125.386 417 103 394.614 103 367V322C103 310.954 111.954 302 123 302H277V367Z" fill="#40CE40"/>
<path d="M277 302H237V275H277V302Z" fill="#40CE40"/>
<path d="M277 275H237V250C237 241.716 243.715 235 252 235H262C270.284 235 277 241.716 277 250V275Z" fill="#FFCEB5"/>
<path d="M228 417H152V410C152 396.193 163.193 385 177 385H203C216.807 385 228 396.193 228 410V417Z" fill="#FFCEB5"/>
<path d="M228 447C228 460.807 216.807 472 203 472H177C163.193 472 152 460.807 152 447V417H228V447Z" fill="#774D29"/>
<path d="M195 385H185V340C185 337.239 187.238 335 190 335C192.761 335 195 337.239 195 340V385Z" fill="#1E1E1E"/>
<path d="M105 275C77.3858 275 55 252.614 55 225V151C55 123.386 77.3858 101 105 101H150C161.046 101 170 109.954 170 121V275H105Z" fill="#FB4231"/>
<path d="M170 275V235H197V275H170Z" fill="#FB4231"/>
<path d="M197 275V235H222C230.284 235 237 241.716 237 250L237 260C237 268.284 230.284 275 222 275H197Z" fill="#FFCEB5"/>
<path d="M55 226V150H62C75.8071 150 87 161.193 87 175V201C87 214.807 75.8071 226 62 226H55Z" fill="#FFCEB5"/>
<path d="M25 226C11.1929 226 0 214.807 0 201V175C0 161.193 11.1929 150 25 150H55V226H25Z" fill="#774D29"/>
<path d="M87 193V183H132C134.761 183 137 185.239 137 188C137 190.761 134.761 193 132 193H87Z" fill="#1E1E1E"/>
<path d="M367 196C394.614 196 417 218.386 417 246V320C417 347.614 394.614 370 367 370H322C310.954 370 302 361.046 302 350V196H367Z" fill="#0C419A"/>
<path d="M302 196V236H275V196H302Z" fill="#0C419A"/>
<path d="M275 196V236H250C241.715 236 235 229.284 235 221V211C235 202.716 241.715 196 250 196H275Z" fill="#FFCEB5"/>
<path d="M417 245V321H410C396.192 321 385 309.807 385 296V270C385 256.193 396.192 245 410 245H417Z" fill="#FFCEB5"/>
<path d="M447 245C460.807 245 472 256.193 472 270V296C472 309.807 460.807 321 447 321H417V245H447Z" fill="#774D29"/>
<path d="M385 278V288H340C337.238 288 335 285.761 335 283C335 280.239 337.238 278 340 278H385Z" fill="#1E1E1E"/>
<path d="M195 105C195 77.3858 217.386 55 245 55H319C346.614 55 369 77.3858 369 105V150C369 161.046 360.045 170 349 170H195V105Z" fill="#FDC00F"/>
<path d="M195 170H235V197H195V170Z" fill="#FDC00F"/>
<path d="M195 197H235V222C235 230.284 228.284 237 220 237H210C201.715 237 195 230.284 195 222V197Z" fill="#FFCEB5"/>
<path d="M244 55H320V62C320 75.8071 308.807 87 295 87H269C255.193 87 244 75.8071 244 62V55Z" fill="#FFCEB5"/>
<path d="M244 25C244 11.1929 255.193 0 269 0H295C308.807 0 320 11.1929 320 25V55H244V25Z" fill="#774D29"/>
<path d="M277 87H287V132C287 134.761 284.761 137 282 137C279.238 137 277 134.761 277 132V87Z" fill="#1E1E1E"/>
</svg>
